HIERARCHY
ROOT root
{
	OFFSET	0	13.1	24.9
	CHANNELS 6  Xposition Yposition Zposition Xrotation Yrotation Zrotation
	JOINT spine_1
	{
		OFFSET	0	9.99999	0
		CHANNELS 3  Xrotation Yrotation Zrotation
		JOINT spine_2
		{
			OFFSET	0	112	-10
			CHANNELS 3  Xrotation Yrotation Zrotation
			JOINT spine_3
			{
				OFFSET	0	206.5	19.3
				CHANNELS 3  Xrotation Yrotation Zrotation
				JOINT spine_4
				{
					OFFSET	0	110.4	14.6
					CHANNELS 3  Xrotation Yrotation Zrotation
					JOINT neck_1
					{
						OFFSET	0	71.8	-50.3
						CHANNELS 3  Xrotation Yrotation Zrotation
						JOINT neck_2
						{
							OFFSET	0	86.2	-25.8
							CHANNELS 3  Xrotation Yrotation Zrotation
							JOINT head_ee
							{
								OFFSET	0	179.8	-8.7
								CHANNELS 3  Xrotation Yrotation Zrotation
								End Site
								{
									OFFSET	1	0	0
								}
							}
						}
					}
					JOINT left_clavicle
					{
						OFFSET	-43.2	22.4	-70.8
						CHANNELS 3  Xrotation Yrotation Zrotation
						JOINT left_shoulder
						{
							OFFSET	-93.9	-5.79999	48.7
							CHANNELS 3  Xrotation Yrotation Zrotation
							JOINT left_elbow
							{
								OFFSET	-291.4	-30.8	15.2
								CHANNELS 3  Xrotation Yrotation Zrotation
								JOINT left_lowarm_twist
								{
									OFFSET	-110.7	-3.89999	13.6
									CHANNELS 3  Xrotation Yrotation Zrotation
									JOINT left_hand
									{
										OFFSET	-110.7	-3.89999	13.6
										CHANNELS 3  Xrotation Yrotation Zrotation
										JOINT left_ee
										{
											OFFSET	-80.8	-5.10001	12.1
											CHANNELS 3  Xrotation Yrotation Zrotation
											End Site
											{
												OFFSET	1	0	0
											}
										}
									}
								}
							}
						}
					}
					JOINT right_clavicle
					{
						OFFSET	43.2	22.4	-70.8
						CHANNELS 3  Xrotation Yrotation Zrotation
						JOINT right_shoulder
						{
							OFFSET	93.9	-5.79999	48.7
							CHANNELS 3  Xrotation Yrotation Zrotation
							JOINT right_elbow
							{
								OFFSET	291.4	-30.8	15.2
								CHANNELS 3  Xrotation Yrotation Zrotation
								JOINT right_lowarm_twist
								{
									OFFSET	110.7	-3.89999	13.6
									CHANNELS 3  Xrotation Yrotation Zrotation
									JOINT right_hand
									{
										OFFSET	110.7	-3.89999	13.6
										CHANNELS 3  Xrotation Yrotation Zrotation
										JOINT right_ee
										{
											OFFSET	80.8	-5.10001	12.1
											CHANNELS 3  Xrotation Yrotation Zrotation
											End Site
											{
												OFFSET	1	0	0
											}
										}
									}
								}
							}
						}
					}
				}
			}
		}
	}
	JOINT left_hip
	{
		OFFSET	-82.8	-127.5	0.300001
		CHANNELS 3  Xrotation Yrotation Zrotation
		JOINT left_knee
		{
			OFFSET	-28.2	-396.7	2.2
			CHANNELS 3  Xrotation Yrotation Zrotation
			JOINT left_ankle
			{
				OFFSET	-11.7	-411.3	35.4
				CHANNELS 3  Xrotation Yrotation Zrotation
				JOINT left_toes
				{
					OFFSET	0	-60	-88.6
					CHANNELS 3  Xrotation Yrotation Zrotation
					JOINT left_foot_ee
					{
						OFFSET	-22.5	-16.5	-42.2
						CHANNELS 3  Xrotation Yrotation Zrotation
						End Site
						{
							OFFSET	1	0	0
						}
					}
				}
			}
		}
	}
	JOINT right_hip
	{
		OFFSET	82.8	-127.5	0.300001
		CHANNELS 3  Xrotation Yrotation Zrotation
		JOINT right_knee
		{
			OFFSET	28.2	-396.7	2.2
			CHANNELS 3  Xrotation Yrotation Zrotation
			JOINT right_ankle
			{
				OFFSET	11.7	-411.3	35.4
				CHANNELS 3  Xrotation Yrotation Zrotation
				JOINT right_toes
				{
					OFFSET	0	-60	-88.6
					CHANNELS 3  Xrotation Yrotation Zrotation
					JOINT right_foot_ee
					{
						OFFSET	22.5	-16.5	-42.2
						CHANNELS 3  Xrotation Yrotation Zrotation
						End Site
						{
							OFFSET	1	0	0
						}
					}
				}
			}
		}
	}
}
MOTION
Frames: 5
Frame Time: 0.02
2834.04595078 702.966 -1628.87645327 -24.4393058124 79.8205933781 31.7783683585 3.96135 -0.456897 -1.07401 3.96191 -0.387633 -1.1009 3.96906 -0.227432 -1.14478 3.96746 -0.405363 -1.0945 -14.148 -0.457896 -0.863024 -14.146 -0.348632 -0.963608 -0.0 0.0 -0.0 5.47254 23.9327 10.2523 2.74677 -32.9251 63.5054 1.55313 -37.5712 0.528322 -44.9131 -3.48817 4.39078 2.96258 19.3594 26.6247 -0.0 0.0 -0.0 7.98945 -9.75143 -15.1767 -21.9537 0.706007 -66.0918 0.440433 12.308 -0.0474888 -41.0432 3.06278 -4.13457 2.17446 -17.054 -20.7003 0.0 0.0 0.0 12.0062 13.8995 -14.9973 -6.15946 0.204155 0.922796 19.7541 -27.8316 -3.29251 4.91084 -0.0 -0.0 -0.0 0.0 -0.0 22.6101 -1.4273 -6.42437 -58.8885 2.08116 -8.40185 34.5822 -18.1237 4.46276 9.34168 -0.0 -0.0 0.0 0.0 0.0 
2834.41559717 702.966 -1625.85411202 -25.6584831938 80.2782754877 33.0161543566 3.96135 -0.456897 -1.07401 3.96191 -0.387633 -1.1009 3.96906 -0.227432 -1.14478 3.96746 -0.405363 -1.0945 -14.148 -0.457896 -0.863024 -14.146 -0.348632 -0.963608 -0.0 0.0 -0.0 5.47254 23.9327 10.2523 2.74677 -32.9251 63.5054 1.55313 -37.5712 0.528322 -44.9131 -3.48817 4.39078 2.96258 19.3594 26.6247 -0.0 0.0 -0.0 7.98945 -9.75143 -15.1767 -21.9537 0.706007 -66.0918 0.440433 12.308 -0.0474888 -41.0432 3.06278 -4.13457 2.17446 -17.054 -20.7003 0.0 0.0 0.0 12.0062 13.8995 -14.9973 -6.15946 0.204155 0.922796 19.7541 -27.8316 -3.29251 4.91084 -0.0 -0.0 -0.0 0.0 -0.0 22.6101 -1.4273 -6.42437 -58.8885 2.08116 -8.40185 34.5822 -18.1237 4.46276 9.34168 -0.0 -0.0 0.0 0.0 0.0 
2818.01173466 703.391 -1610.10722029 -32.7827572549 83.8063167562 39.9108886531 3.85229 -0.690896 -1.17173 3.85285 -0.614942 -1.21332 3.8656 -0.434217 -1.28908 3.86384 -0.632339 -1.20434 -13.7303 -0.642823 0.0936732 -13.7315 -1.28294 -0.10968 -0.0 0.0 -0.0 5.69583 23.5865 10.5842 3.19226 -33.4786 63.3677 1.74588 -40.8515 0.650223 -45.9787 -3.60824 4.45623 2.31162 19.0819 22.1921 -0.0 0.0 -0.0 7.54427 -10.6632 -14.3201 -22.8261 -0.443091 -65.4889 0.388398 10.8909 -0.0370254 -41.3348 3.09423 -4.15487 2.2496 -18.334 -21.5718 0.0 0.0 0.0 9.55832 15.9109 -14.0193 -5.73919 0.193393 0.859198 21.4043 -27.086 -3.50231 4.49729 -0.0 -0.0 -0.0 0.0 -0.0 23.9291 -0.670948 -7.75627 -55.7642 1.76038 -8.04251 33.9867 -19.6261 4.42843 8.96139 -0.0 -0.0 0.0 0.0 0.0 
2801.34708992 702.028 -1588.80778685 -52.49622314 86.2294359922 59.5297984776 3.83637 -0.823297 -1.26215 3.83695 -0.741322 -1.31197 3.85366 -0.544865 -1.40496 3.85171 -0.759896 -1.3013 -15.5564 -1.01476 -0.0472844 -15.5598 -1.91549 -0.389558 -0.0 0.0 -0.0 5.72639 22.5922 10.6842 3.73651 -34.265 63.7677 1.92114 -43.577 0.768013 -46.852 -3.70755 4.50822 1.74944 18.7894 18.4644 -0.0 0.0 -0.0 7.25391 -11.8811 -13.738 -23.3127 -1.76315 -64.3494 0.38417 10.7751 -0.0362307 -41.7852 3.14299 -4.1859 2.5741 -21.6585 -24.5986 0.0 0.0 0.0 7.51349 17.2846 -13.6622 -5.66699 0.191497 0.848281 21.6418 -27.6018 -3.55787 4.4105 -0.0 -0.0 -0.0 0.0 -0.0 21.8366 0.320486 -7.86206 -45.7206 0.870215 -6.77979 29.1286 -20.3729 3.91207 7.38777 -0.0 -0.0 0.0 0.0 0.0 
2785.12986537 702.884 -1577.30302941 -76.0137839786 87.8695877539 82.8810562773 3.76812 -0.975299 -1.36889 3.76873 -0.886226 -1.42817 3.79057 -0.669915 -1.5415 3.7884 -0.904935 -1.41639 -16.6427 -1.16739 0.424418 -16.6486 -2.48072 -0.0205386 -0.0 0.0 -0.0 5.98505 21.6306 11.1157 4.16682 -34.6184 63.9118 2.05632 -45.5236 0.862859 -47.5178 -3.78378 4.54683 1.2828 18.6625 15.4676 -0.0 0.0 -0.0 7.04072 -13.2977 -13.2895 -23.8048 -2.19912 -63.3791 0.365933 10.2748 -0.0328995 -42.131 3.1806 -4.20948 2.7407 -23.0554 -26.0271 0.0 0.0 0.0 5.37564 18.319 -13.0939 -5.74557 0.19356 0.860164 21.7333 -27.2809 -3.55738 3.689 -0.0 -0.0 -0.0 0.0 -0.0 21.0918 2.43718 -7.76541 -39.5083 0.435781 -5.92934 24.5819 -20.6377 3.38126 4.75601 -0.0 -0.0 0.0 0.0 0.0 
